<?xml version="1.0" encoding="utf-8"?>
<!-- Generator: Adobe Illustrator 24.0.1, SVG Export Plug-In . SVG Version: 6.00 Build 0)  -->
<svg version="1.1" id="Layer_1" xmlns="http://www.w3.org/2000/svg" xmlns:xlink="http://www.w3.org/1999/xlink" x="0px" y="0px"
	 viewBox="0 0 2880 1800" style="enable-background:new 0 0 2880 1800;" xml:space="preserve">
<style type="text/css">
	.st0{fill:#060F19;}
	.st1{fill:#FFFFFF;}
	.st2{fill:none;stroke:#FFFFFF;stroke-width:5;stroke-miterlimit:10;}
</style>
<g>
	<rect x="-66.5" y="-24.5" class="st0" width="2999" height="1840"/>
	<path class="st1" d="M2932-24v1839H-66V-24H2932 M2933-25H-67v1841h3000V-25L2933-25z"/>
</g>
<g>
	<rect x="-83.5" y="-49.5" width="3032" height="1887"/>
	<path class="st1" d="M2948-49v1886H-83V-49H2948 M2949-50H-84v1888h3033V-50L2949-50z"/>
</g>
<polyline class="st2" points="2861.5,1626.5 2679.5,1626.5 2614.5,1691.5 2454.5,1691.5 2384.5,1761.5 2205.5,1761.5 "/>
<path class="st2" d="M2079.5,1716.5c2,2,126,0,126,0h119l81-81v-47"/>
<path class="st2" d="M2451.5,1626.5c2,0,149,0,149,0l31-31h176"/>
<polyline class="st2" points="-0.5,1761.5 206.5,1761.5 263,1705 390.5,1705 431.25,1664.25 431.25,1748.5 613.5,1748.5 
	703.5,1658.5 811.5,1658.5 811.5,1734.5 923.5,1622.5 "/>
<polyline class="st2" points="461.5,1584.5 461.5,1691.5 461.5,1714.5 596.5,1714.5 660,1651 "/>
<path class="st2" d="M943.5,1757.5c0,2-47.5-47.5-47.5-47.5l79-79h114.5l56.25,56.25h182.75l76.38-76.38h263.63l132.81,132.81l17,17
	v11.81"/>
<path class="st2" d="M1051.5,1652.5c-4-1,81.5,81.5,81.5,81.5h224.5l82.25-82.25h62.75v82.75"/>
<polyline class="st2" points="1453.5,1694.5 1453.5,1772.5 1556.5,1772.5 1556.5,1652.5 1647.5,1652.5 1753.5,1758.5 "/>
<polyline class="st2" points="969.5,1691.5 1051,1773 1357.5,1773 1396.75,1733.75 "/>
<polyline class="st2" points="1854.5,1761.5 1941.38,1674.5 2154.09,1674.5 2216,1612.5 2216,1502.5 2133.11,1419.5 "/>
<polyline class="st2" points="16.5,1551.5 16.5,1717.5 100.5,1633.5 344.5,1633.5 "/>
<polyline class="st2" points="111.5,1717.5 161,1668 344.5,1668 429.25,1583.25 "/>
<line class="st2" x1="270.5" y1="1761.5" x2="378.5" y2="1761.5"/>
<line class="st2" x1="2603" y1="1765.5" x2="2711" y2="1765.5"/>
<polyline class="st2" points="1832.5,1691.5 1997.5,1526.5 2160.5,1526.5 2160.5,1609.5 2131.5,1638.5 "/>
<polyline class="st2" points="2471.5,1761.5 2508.5,1724.5 2629.5,1724.5 2702.5,1724.5 2702.5,1652.5 2764.5,1714.5 2807.5,1714.5 
	"/>
<polyline class="st2" points="35.5,1622.5 116.5,1541.5 312.5,1541.5 393.5,1460.5 1101.5,1460.5 1282,1280 1753.5,1280 "/>
<polyline class="st2" points="501.5,1649.5 501.5,1502.5 429.5,1502.5 336.5,1595.5 137.5,1595.5 "/>
<polyline class="st2" points="1198.5,1622.5 1275,1546 1396.5,1546 1437.25,1586.75 1530.5,1586.75 1530.5,1301.5 "/>
<polyline class="st2" points="1705.5,1122.5 1826.5,1243.5 1826.5,1344.5 1660,1511 1779,1630 "/>
<polyline class="st2" points="980.5,1551.5 962.5,1569.5 883.5,1569.5 837,1616 752.5,1616 674.25,1537.75 540.5,1537.75 
	540.5,1663.5 581.5,1663.5 638,1607 "/>
<polyline class="st2" points="1304.5,1301.5 1218,1388 1218,1551.5 1176.25,1593.25 1010.5,1593.25 "/>
<polyline class="st2" points="717.5,1502.5 763.5,1548.5 812.5,1548.5 864.5,1496.5 1157.5,1496.5 1093.5,1560.5 "/>
<polyline class="st2" points="1215.5,1652.5 1289.5,1652.5 1354.5,1587.5 "/>
<polyline class="st2" points="726.5,1694.5 726.5,1772.5 866.5,1772.5 "/>
<polyline class="st2" points="1260.5,1389.5 1262.5,1496.5 1393.5,1496.5 1447.5,1552.5 1497.5,1552.5 1497.5,1312.5 "/>
<polyline class="st2" points="1304.5,1376.5 1370,1311 1453.5,1311 1453.5,1482.5 1404.5,1433.5 1315.5,1433.5 "/>
<polyline class="st2" points="2861.5,1496.5 2720,1355 2514.5,1355 2462.25,1407.25 2186.5,1407.25 2080.13,1300.88 1929.5,1300.88 
	1829.19,1401.19 1829.19,1517.5 1871.84,1560.16 "/>
<path class="st2" d="M46.5,1526.5c0-3,34.5-34.5,34.5-34.5h207.5v-339.5"/>
<polyline class="st2" points="16.5,1133.5 16.5,1462.5 245.5,1462.5 245.5,1133.5 "/>
<polyline class="st2" points="46.5,1152.5 46.5,1339.5 129,1422 212.5,1422 212.5,1206.5 "/>
<line class="st2" x1="96.5" y1="1152.5" x2="96.5" y2="1339.5"/>
<polyline class="st2" points="148.5,1376.5 148.5,1152.5 212.5,1152.5 "/>
<polyline class="st2" points="551.5,1215.5 410,1357 410,1419.5 1060.5,1419.5 "/>
<polyline class="st2" points="501.5,1339.5 501.5,1385.5 1030.5,1385.5 "/>
<polyline class="st2" points="642.5,1215.5 550.5,1307.5 689.5,1307.5 747.5,1307.5 747.5,1353.5 560.5,1353.5 "/>
<polyline class="st2" points="319.5,1152.5 319.5,1422.5 368.5,1422.5 368.5,1327.5 546.5,1149.5 "/>
<polyline class="st2" points="482.5,1152.5 374.5,1260.5 344.5,1260.5 344.5,1152.5 "/>
<polyline class="st2" points="1910.5,1502.5 1880,1472 1880,1419.5 1953.25,1346.25 2061.5,1346.25 2107.13,1391.88 2107.13,1482.5 
	"/>
<polyline class="st2" points="1910.5,1432.5 1959.5,1481.5 2065.5,1481.5 2065.5,1396.5 1947.5,1396.5 "/>
<polyline class="st2" points="1949.5,1626.5 2055.5,1626.5 2097,1585 2097,1551.5 2023.5,1551.5 "/>
<polyline class="st2" points="735.5,1152.5 1183.5,1152.5 1183.5,1228.5 1048,1364 930,1246 660.5,1246 "/>
<polyline class="st2" points="1743.5,1339.5 1629.5,1453.5 1629.5,1515.5 1667.5,1553.5 1558.5,1553.5 1558.5,1339.5 1636.5,1339.5 
	"/>
<polyline class="st2" points="631.5,1152.5 669,1190 952.5,1190 1039.25,1276.75 1101,1215 "/>
<polyline class="st2" points="777.5,1276.5 905.5,1276.5 939,1310 896,1353 808.5,1353 "/>
<polyline class="st2" points="1101.5,1385.5 1258.5,1228.5 1753.5,1228.5 1700.5,1175.5 1248.5,1175.5 "/>
<polyline class="st2" points="1776.5,1430.5 1776.5,1551.5 1836,1611 "/>
<polyline class="st2" points="1910.5,1761.5 1958.5,1713.5 2023.5,1713.5 2075.5,1765.5 "/>
<polyline class="st2" points="1630.5,1691.5 1683.5,1744.5 1657,1771 1589.5,1771 1589.5,1712.5 "/>
<polyline class="st2" points="2275.5,1650.5 2394.5,1531.5 2795.5,1531.5 2697,1433 2631,1499 2309.5,1499 2261.75,1546.75 "/>
<polyline class="st2" points="2243,1459.5 2558,1459.5 2615.5,1402 "/>
<polyline class="st2" points="1836.5,1149.5 2769.5,1149.5 2769.5,1236.5 2615.5,1236.5 2541.5,1310.5 2374.5,1310.5 2306.5,1378.5 
	2205.5,1378.5 "/>
<polyline class="st2" points="2795.5,1152.5 2795.5,1232.5 2845,1282 2845,1433.5 "/>
<polyline class="st2" points="2657.5,1264.5 2754.5,1264.5 2801.5,1311.5 2801.5,1376.5 2743.5,1318.5 2615.5,1318.5 "/>
<polyline class="st2" points="1854.5,1293.5 1966.5,1181.5 2393.5,1181.5 2471.5,1259.5 2326.5,1259.5 2265,1321 2163.5,1321 
	2090.25,1247.75 "/>
<polyline class="st2" points="1961,1273 2013.5,1220.5 2318,1220.5 "/>
<polyline class="st2" points="2452,1169.5 2535,1252.5 2582,1205.5 2688,1205.5 "/>
<g>
	<g>
		<path class="st0" d="M115.01,504.41c1.93,0,1.93-3,0-3C113.07,501.41,113.07,504.41,115.01,504.41L115.01,504.41z"/>
	</g>
</g>
</svg>
